#!OML:ASF E:\Style4\Style4.ASF
:FULLY-SPECIFIED
:DEGREES
1268
root 0.231819 17.9148 -1.82455 -0.562976 -5.80161 1.6582
lowerback 4.4997 2.98459 0.0854057
upperback 0.145781 3.98945 0.323896
thorax -2.3852 1.98942 0.0258681
lowerneck -3.41943 -5.32943 -5.60851
upperneck 12.6911 -7.13934 3.08141
head 4.68013 -3.60059 1.48512
rclavicle 2.39411e-014 1.59028e-015
rhumerus 26.9731 -23.224 -83.6316
rradius 83.0499
rwrist -58.8156
rhand -24.9277 31.3598
rfingers 7.12502
rthumb 1.58139 1.38591
lclavicle 2.39411e-014 1.59028e-015
lhumerus -40.9352 -44.9869 107.783
lradius 82.5414
lwrist 23.32
lhand -13.7813 27.4592
lfingers 7.12502
lthumb 12.34 57.0751
rfemur -9.83042 3.7118 15.7269
rtibia 26.747
rfoot -15.3479 -12.6782
rtoes -16.2075
lfemur -6.2067 -1.29022 -21.9144
ltibia 24.8903
lfoot -18.8826 12.0054
ltoes -12.7826
1269
root 0.237431 17.9145 -1.8132 -0.442163 -6.05743 1.76392
lowerback 4.27617 3.02048 -0.10735
upperback 0.117964 4.02903 0.38439
thorax -2.30646 2.012 0.204022
lowerneck -3.4963 -5.248 -5.65175
upperneck 12.8317 -7.00856 2.95269
head 4.72761 -3.54502 1.45664
rclavicle -6.36359e-014 -3.57812e-015
rhumerus 26.063 -24.5808 -83.6343
rradius 83.027
rwrist -59.0526
rhand -24.7563 31.636
rfingers 7.12502
rthumb 1.74694 1.66337
lclavicle -6.36359e-014 -3.57812e-015
lhumerus -40.9973 -44.785 107.781
lradius 82.5312
lwrist 23.2409
lhand -13.7166 27.2431
lfingers 7.12502
lthumb 12.4024 56.8552
rfemur -10.0229 3.82312 15.5923
rtibia 26.8115
rfoot -15.3607 -12.5979
rtoes -16.4433
lfemur -6.2607 -1.0116 -22.024
ltibia 24.8676
lfoot -18.9707 12.0153
ltoes -13.1035
1270
root 0.243362 17.9131 -1.80702 -0.379887 -6.18534 1.73501
lowerback 4.17298 3.01443 -0.105437
upperback 0.117834 4.02258 0.451372
thorax -2.2535 2.00928 0.277793
lowerneck -3.49105 -5.16669 -5.69614
upperneck 12.8369 -6.88666 2.88494
head 4.72229 -3.49113 1.4504
rclavicle 1.78161e-014 5.56597e-015
rhumerus 25.1535 -25.935 -83.5954
rradius 82.9367
rwrist -59.3926
rhand -24.6407 31.521
rfingers 7.12502
rthumb 1.85859 1.54932
lclavicle 1.78161e-014 5.56597e-015
lhumerus -41.0527 -44.6575 107.724
lradius 82.5555
lwrist 23.1782
lhand -13.6476 27.1366
lfingers 7.12502
lthumb 12.4689 56.7446
rfemur -10.1404 3.89344 15.5982
rtibia 26.9097
rfoot -15.4618 -12.5181
rtoes -16.3239
lfemur -6.27707 -0.839445 -21.9955
ltibia 24.8507
lfoot -19.0268 11.9893
ltoes -13.0928
1271
root 0.250651 17.9095 -1.80345 -0.389884 -6.21683 1.73471
lowerback 4.16005 2.96428 -0.142885
upperback 0.146192 3.95576 0.53782
thorax -2.22527 1.97679 0.392714
lowerneck -3.45889 -5.09156 -5.75734
upperneck 12.7574 -6.7674 2.78428
head 4.68616 -3.44109 1.43821
rclavicle 2.10712e-014 -3.97569e-016
rhumerus 24.2054 -27.1804 -83.4721
rradius 82.8168
rwrist -59.8097
rhand -24.763 31.3647
rfingers 7.12502
rthumb 1.74044 1.3921
lclavicle 2.10712e-014 -3.97569e-016
lhumerus -41.0551 -44.4707 107.683
lradius 82.5553
lwrist 23.087
lhand -13.2907 27.8005
lfingers 7.12502
lthumb 12.8129 57.3873
rfemur -10.1769 3.92612 15.5776
rtibia 27.0342
rfoot -15.5091 -12.5853
rtoes -16.4537
lfemur -6.27122 -0.855644 -22.0186
ltibia 24.8899
lfoot -19.131 11.9009
ltoes -12.4957
1272
root 0.259196 17.9084 -1.79941 -0.310159 -6.2187 1.76553
lowerback 4.04969 2.89492 -0.210926
upperback 0.157316 3.86166 0.610025
thorax -2.16064 1.93103 0.516534
lowerneck -3.46575 -5.00818 -5.8231
upperneck 12.6982 -6.63599 2.69082
head 4.66273 -3.38448 1.42833
rclavicle -5.93869e-015 7.15625e-015
rhumerus 23.2587 -28.3522 -83.3711
rradius 82.6583
rwrist -60.1932
rhand -24.9293 31.5365
rfingers 7.12502
rthumb 1.57986 1.5626
lclavicle -5.93869e-015 7.15625e-015
lhumerus -41.0515 -44.2155 107.602
lradius 82.6012
lwrist 23.0613
lhand -12.6063 28.8688
lfingers 7.12502
lthumb 13.4727 58.413
rfemur -10.2934 3.87126 15.5013
rtibia 27.1561
rfoot -15.5811 -12.4767
rtoes -15.884
lfemur -6.40474 -0.893103 -22.0896
ltibia 24.9834
lfoot -19.1835 11.8529
ltoes -12.1513
1273
root 0.268871 17.9087 -1.79707 -0.118771 -6.17194 1.69714
lowerback 3.83468 2.8251 -0.149938
upperback 0.140379 3.77287 0.684951
thorax -2.05772 1.88673 0.575656
lowerneck -3.33559 -4.93501 -5.80897
upperneck 12.5061 -6.52434 2.5487
head 4.57217 -3.33704 1.39468
rclavicle 4.37326e-015 7.15625e-015
rhumerus 22.3088 -29.5701 -83.3008
rradius 82.5479
rwrist -60.4409
rhand -25.2781 31.8678
rfingers 7.12502
rthumb 1.24296 1.89163
lclavicle 4.37326e-015 7.15625e-015
lhumerus -41.0465 -44.0446 107.54
lradius 82.6205
lwrist 23.0481
lhand -12.2674 29.1275
lfingers 7.12502
lthumb 13.7993 58.6498
rfemur -10.4807 3.75968 15.5188
rtibia 27.2459
rfoot -15.7035 -12.2056
rtoes -14.3841
lfemur -6.67761 -0.97687 -22.0512
ltibia 25.0945
lfoot -19.2484 11.8274
ltoes -11.9884
